<?xml version="1.0" encoding="utf-8"?>
<!-- Generator: Adobe Illustrator 16.0.0, SVG Export Plug-In . SVG Version: 6.00 Build 0)  -->
<!DOCTYPE svg PUBLIC "-//W3C//DTD SVG 1.1//EN" "http://www.w3.org/Graphics/SVG/1.1/DTD/svg11.dtd">
<svg version="1.1" id="Layer_1" xmlns="http://www.w3.org/2000/svg" xmlns:xlink="http://www.w3.org/1999/xlink" x="0px" y="0px"
	 width="24px" height="24px" viewBox="0 0 24 24" enable-background="new 0 0 24 24" xml:space="preserve">
<g>
	<g>
		<g>
			<path d="M12,20.066c-2.184,0-4.409-0.082-7.683-0.282c-1.69-0.103-3.267-1.589-3.439-3.245c-0.374-3.652-0.373-5.434,0.003-9.077
				c0.17-1.656,1.743-3.144,3.437-3.248c6.547-0.398,8.818-0.398,15.365,0c1.69,0.104,3.265,1.592,3.437,3.248
				c0.376,3.644,0.377,5.425,0.003,9.076c-0.17,1.657-1.745,3.144-3.439,3.246C16.409,19.984,14.184,20.066,12,20.066z M12,4.733
				c-2.166,0-4.378,0.081-7.634,0.279c-1.303,0.08-2.56,1.263-2.69,2.531c-0.368,3.578-0.369,5.327-0.003,8.912
				c0.134,1.269,1.392,2.451,2.693,2.529c6.512,0.398,8.756,0.398,15.268,0c1.305-0.079,2.563-1.261,2.693-2.529
				c0.366-3.585,0.365-5.334-0.003-8.912c-0.132-1.268-1.39-2.451-2.69-2.531C16.378,4.814,14.166,4.733,12,4.733z"/>
		</g>
	</g>
	<g>
		<path d="M9.779,14.636c-0.076,0-0.152-0.022-0.219-0.065c-0.113-0.074-0.182-0.2-0.182-0.335V8.867
			c0-0.135,0.068-0.261,0.182-0.335c0.114-0.074,0.256-0.085,0.38-0.031l6.112,2.684c0.145,0.063,0.239,0.207,0.239,0.366
			c0,0.158-0.094,0.303-0.239,0.366L9.94,14.602C9.889,14.624,9.834,14.636,9.779,14.636z M10.18,9.479v4.144l4.717-2.072
			L10.18,9.479z"/>
	</g>
</g>
</svg>
